<?xml version="1.0" encoding="utf-8"?>
<!-- Generator: Adobe Illustrator 16.0.0, SVG Export Plug-In . SVG Version: 6.00 Build 0)  -->
<!DOCTYPE svg PUBLIC "-//W3C//DTD SVG 1.1//EN" "http://www.w3.org/Graphics/SVG/1.1/DTD/svg11.dtd">
<svg version="1.1" id="Ebene_1" xmlns="http://www.w3.org/2000/svg" xmlns:xlink="http://www.w3.org/1999/xlink" x="0px" y="0px"
	 width="124.22px" height="124.22px" viewBox="0 0 124.22 124.22" enable-background="new 0 0 124.22 124.22" xml:space="preserve">
<g>
	<rect x="0" fill="#EF851D" width="124.22" height="124.221"/>
	<g>
		<path d="M60.256,67.619h-4.859L40.865,25.66L26.741,67.619h-4.857L0.042,0.185h12.306l12.487,40.144L38.322,0.185H43.5
			l13.531,40.144L69.473,0.185h12.306L60.256,67.619z"/>
	</g>
	<g>
		<path d="M18.031,98.789c0-7.418,2.143-13.457,6.426-18.12c4.284-4.66,9.938-6.992,16.961-6.992c7.387,0,13.124,2.24,17.211,6.721
			c4.087,4.481,6.131,10.61,6.131,18.393c0,7.75-2.082,13.91-6.244,18.48c-4.163,4.572-9.861,6.855-17.098,6.855
			c-7.388,0-13.131-2.309-17.233-6.924C20.083,112.586,18.031,106.447,18.031,98.789z M29.84,98.789
			c0,10.717,3.859,16.074,11.579,16.074c3.543,0,6.35-1.393,8.424-4.178s3.111-6.75,3.111-11.896c0-10.564-3.847-15.85-11.535-15.85
			c-3.541,0-6.357,1.395-8.445,4.178C30.884,89.904,29.84,93.793,29.84,98.789z"/>
	</g>
	<g>
		<path d="M110,124.219L91.474,95.883l-7.401,10.127v18.209H72.265V57.693h11.807v31.832l22.614-31.832h13.44L99.283,86.756
			l24.84,37.463H110L110,124.219z"/>
	</g>
</g>
</svg>
