<?xml version="1.0" encoding="utf-8"?>
<!-- Generator: Adobe Illustrator 16.0.0, SVG Export Plug-In . SVG Version: 6.00 Build 0)  -->
<!DOCTYPE svg PUBLIC "-//W3C//DTD SVG 1.1//EN" "http://www.w3.org/Graphics/SVG/1.1/DTD/svg11.dtd">
<svg version="1.1" id="Ebene_1" xmlns="http://www.w3.org/2000/svg" xmlns:xlink="http://www.w3.org/1999/xlink" x="0px" y="0px"
	 width="124px" height="124px" viewBox="0 0 124 124" enable-background="new 0 0 124 124" xml:space="preserve">
<g>
	<circle fill="#F18518" cx="62" cy="62" r="62"/>
	<g>
		<path fill="#FFFFFF" d="M14.773,46.177c0-2.378,0.415-4.482,1.245-6.308s1.922-3.333,3.278-4.523
			c1.355-1.189,2.876-2.088,4.565-2.698c1.687-0.608,3.389-0.913,5.104-0.913c1.714,0,3.416,0.305,5.104,0.913
			c1.687,0.61,3.208,1.508,4.565,2.698c1.355,1.19,2.448,2.697,3.278,4.523s1.245,3.93,1.245,6.308v2.988h-8.466v-2.988
			c0-2.046-0.568-3.555-1.701-4.523c-1.135-0.968-2.477-1.453-4.025-1.453c-1.55,0-2.892,0.485-4.026,1.453
			c-1.135,0.969-1.701,2.477-1.701,4.523v31.208c0,2.049,0.566,3.557,1.701,4.523c1.134,0.969,2.476,1.453,4.026,1.453
			c1.548,0,2.891-0.484,4.025-1.453c1.133-0.967,1.701-2.475,1.701-4.523V66.263h-6.723v-7.471H43.16v18.592
			c0,2.436-0.415,4.553-1.245,6.35c-0.83,1.799-1.923,3.293-3.278,4.482c-1.356,1.19-2.878,2.089-4.565,2.697
			c-1.689,0.608-3.39,0.913-5.104,0.913c-1.716,0-3.417-0.305-5.104-0.913c-1.689-0.608-3.21-1.507-4.565-2.697
			c-1.356-1.189-2.448-2.684-3.278-4.482c-0.83-1.797-1.245-3.914-1.245-6.35V46.177z"/>
		<path fill="#FFFFFF" d="M50.629,32.232h12.699c2.324,0,4.371,0.305,6.143,0.913c1.77,0.61,3.374,1.688,4.813,3.237
			c1.438,1.55,2.435,3.361,2.987,5.437c0.553,2.075,0.83,4.884,0.83,8.424c0,2.602-0.152,4.828-0.456,6.682
			c-0.305,1.854-0.954,3.583-1.95,5.188c-1.162,1.938-2.712,3.444-4.648,4.523c-1.938,1.079-4.482,1.618-7.636,1.618h-4.316v23.074
			h-8.466V32.232z M59.095,60.287h4.067c1.715,0,3.043-0.249,3.984-0.747c0.939-0.498,1.631-1.175,2.074-2.033
			c0.442-0.857,0.706-1.895,0.789-3.113c0.082-1.216,0.124-2.573,0.124-4.067c0-1.382-0.042-2.698-0.124-3.942
			c-0.083-1.245-0.332-2.324-0.747-3.237s-1.066-1.631-1.95-2.158c-0.887-0.525-2.158-0.789-3.818-0.789h-4.399V60.287z"/>
		<path fill="#FFFFFF" d="M92.212,60.37L81.173,32.232h8.964l6.391,17.513l6.475-17.513h8.964L100.678,60.37l12.201,30.959h-8.965
			l-7.387-19.92l-7.304,19.92H80.26L92.212,60.37z"/>
	</g>
</g>
</svg>
